<?xml version="1.0" standalone="no"?><svg xmlns="http://www.w3.org/2000/svg" viewBox="0 0 1440 320"><path fill="#101316" fill-opacity="1" d="M0,224L34.3,213.3C68.6,203,137,181,206,176C274.3,171,343,181,411,208C480,235,549,277,617,277.3C685.7,277,754,235,823,208C891.4,181,960,171,1029,170.7C1097.1,171,1166,181,1234,192C1302.9,203,1371,213,1406,218.7L1440,224L1440,320L1405.7,320C1371.4,320,1303,320,1234,320C1165.7,320,1097,320,1029,320C960,320,891,320,823,320C754.3,320,686,320,617,320C548.6,320,480,320,411,320C342.9,320,274,320,206,320C137.1,320,69,320,34,320L0,320Z"></path></svg>