<svg width="960" height="150" xmlns="http://www.w3.org/2000/svg"><path d="M0 94l46 32 45-18 46-13 46 27 46-25 45 21 46 7 46-11 45-13 46 8 46-13 46 24 45-13 46 9 46-6 45-16 46 32 46-1 46-11 45-12 46 9v40H0z" fill="#101316"/><path d="M0 131l46-15 45 3 46-11 46 19 46-9 45-5 46 12 46-15 45 20 46-15 46 3 46 9 45 1 46-17h46l45 17 46 3 46-18 46 18 45-7 46 3v24H0z" fill="#121619"/><path d="M0 130l46-1 45 3 46-6 46-1 46 11 45-6 46 5 46-18 45 14 46-13 46 4 46 1 45 4 46 7 46-12 45 6h46l46 1h46l45 11 46-9v20H0z" fill="#14181b"/><path d="M0 131l46-2 45 17 46-10 46 2 46-2 45 6 46-5 46 8 45-5 46 6 46-3 46-1 45-2 46 3 46 2 45-8 46 8 46-8 46-6 45 14 46-17v23H0z" fill="#161a1d"/></svg>