<svg xmlns="http://www.w3.org/2000/svg" version="1.1" xmlns:xlink="http://www.w3.org/1999/xlink" xmlns:svgjs="http://svgjs.dev/svgjs" viewBox="0 0 800 800"><defs><linearGradient x1="50%" y1="0%" x2="50%" y2="100%" id="ffflurry-grad" gradientTransform="rotate(270)"><stop stop-color="hsl(238, 82%, 13%)" stop-opacity="1" offset="0%"></stop><stop stop-color="hsl(132, 88%, 45%)" stop-opacity="1" offset="45%"></stop><stop stop-color="hsl(105, 69%, 60%)" stop-opacity="1" offset="100%"></stop></linearGradient></defs><rect width="100%" height="100%" fill="hsl(238, 82%, 13%)"></rect><g fill="url(#ffflurry-grad)"><rect width="251" height="4" x="211.5" y="60" rx="2" transform="rotate(56, 337, 62)" opacity="0.23"></rect><rect width="341" height="4" x="432.5" y="539" rx="2" transform="rotate(56, 603, 541)" opacity="0.79"></rect><rect width="367" height="4" x="583.5" y="104" rx="2" transform="rotate(56, 767, 106)" opacity="0.48"></rect><rect width="266" height="4" x="632" y="379" rx="2" transform="rotate(56, 765, 381)" opacity="0.40"></rect><rect width="460" height="4" x="-99" y="217" rx="2" transform="rotate(56, 131, 219)" opacity="0.93"></rect><rect width="61" height="4" x="365.5" y="582" rx="2" transform="rotate(56, 396, 584)" opacity="0.38"></rect><rect width="458" height="4" x="195" y="744" rx="2" transform="rotate(56, 424, 746)" opacity="0.27"></rect><rect width="215" height="4" x="590.5" y="464" rx="2" transform="rotate(56, 698, 466)" opacity="0.09"></rect><rect width="94" height="4" x="84" y="435" rx="2" transform="rotate(56, 131, 437)" opacity="0.38"></rect><rect width="312" height="4" x="-65" y="45" rx="2" transform="rotate(56, 91, 47)" opacity="0.38"></rect><rect width="359" height="4" x="538.5" y="769" rx="2" transform="rotate(56, 718, 771)" opacity="0.31"></rect><rect width="80" height="4" x="291" y="754" rx="2" transform="rotate(56, 331, 756)" opacity="0.46"></rect><rect width="306" height="4" x="325" y="558" rx="2" transform="rotate(56, 478, 560)" opacity="0.50"></rect><rect width="208" height="4" x="652" y="637" rx="2" transform="rotate(56, 756, 639)" opacity="0.57"></rect><rect width="472" height="4" x="414" y="32" rx="2" transform="rotate(56, 650, 34)" opacity="0.37"></rect><rect width="164" height="4" x="110" y="149" rx="2" transform="rotate(56, 192, 151)" opacity="0.59"></rect><rect width="52" height="4" x="9" y="278" rx="2" transform="rotate(56, 35, 280)" opacity="0.14"></rect><rect width="373" height="4" x="43.5" y="621" rx="2" transform="rotate(56, 230, 623)" opacity="0.14"></rect><rect width="572" height="4" x="380" y="631" rx="2" transform="rotate(56, 666, 633)" opacity="0.35"></rect><rect width="498" height="4" x="-11" y="753" rx="2" transform="rotate(56, 238, 755)" opacity="0.29"></rect><rect width="29" height="4" x="320.5" y="583" rx="2" transform="rotate(56, 335, 585)" opacity="0.95"></rect><rect width="378" height="4" x="518" y="554" rx="2" transform="rotate(56, 707, 556)" opacity="0.60"></rect><rect width="140" height="4" x="410" y="138" rx="2" transform="rotate(56, 480, 140)" opacity="0.84"></rect><rect width="122" height="4" x="139" y="451" rx="2" transform="rotate(56, 200, 453)" opacity="0.92"></rect><rect width="527" height="4" x="237.5" y="252" rx="2" transform="rotate(56, 501, 254)" opacity="0.80"></rect><rect width="179" height="4" x="296.5" y="528" rx="2" transform="rotate(56, 386, 530)" opacity="0.36"></rect><rect width="407" height="4" x="-22.5" y="574" rx="2" transform="rotate(56, 181, 576)" opacity="0.40"></rect><rect width="135" height="4" x="379.5" y="335" rx="2" transform="rotate(56, 447, 337)" opacity="0.38"></rect><rect width="586" height="4" x="385" y="150" rx="2" transform="rotate(56, 678, 152)" opacity="0.21"></rect><rect width="125" height="4" x="262.5" y="679" rx="2" transform="rotate(56, 325, 681)" opacity="0.88"></rect><rect width="404" height="4" x="290" y="649" rx="2" transform="rotate(56, 492, 651)" opacity="0.73"></rect><rect width="472" height="4" x="-132" y="331" rx="2" transform="rotate(56, 104, 333)" opacity="0.13"></rect><rect width="470" height="4" x="-75" y="714" rx="2" transform="rotate(56, 160, 716)" opacity="0.10"></rect><rect width="379" height="4" x="418.5" y="100" rx="2" transform="rotate(56, 608, 102)" opacity="0.99"></rect><rect width="320" height="4" x="362" y="43" rx="2" transform="rotate(56, 522, 45)" opacity="0.79"></rect><rect width="185" height="4" x="683.5" y="532" rx="2" transform="rotate(56, 776, 534)" opacity="0.25"></rect><rect width="622" height="4" x="45" y="396" rx="2" transform="rotate(56, 356, 398)" opacity="0.92"></rect><rect width="56" height="4" x="215" y="505" rx="2" transform="rotate(56, 243, 507)" opacity="0.97"></rect><rect width="171" height="4" x="591.5" y="384" rx="2" transform="rotate(56, 677, 386)" opacity="0.32"></rect><rect width="297" height="4" x="458.5" y="761" rx="2" transform="rotate(56, 607, 763)" opacity="0.85"></rect><rect width="629" height="4" x="-258.5" y="716" rx="2" transform="rotate(56, 56, 718)" opacity="0.62"></rect><rect width="165" height="4" x="316.5" y="169" rx="2" transform="rotate(56, 399, 171)" opacity="0.64"></rect><rect width="498" height="4" x="165" y="57" rx="2" transform="rotate(56, 414, 59)" opacity="0.44"></rect><rect width="216" height="4" x="169" y="26" rx="2" transform="rotate(56, 277, 28)" opacity="0.26"></rect><rect width="73" height="4" x="531.5" y="373" rx="2" transform="rotate(56, 568, 375)" opacity="0.91"></rect><rect width="180" height="4" x="626" y="258" rx="2" transform="rotate(56, 716, 260)" opacity="0.98"></rect><rect width="266" height="4" x="240" y="651" rx="2" transform="rotate(56, 373, 653)" opacity="0.46"></rect><rect width="387" height="4" x="327.5" y="742" rx="2" transform="rotate(56, 521, 744)" opacity="0.64"></rect><rect width="131" height="4" x="671.5" y="49" rx="2" transform="rotate(56, 737, 51)" opacity="0.10"></rect><rect width="591" height="4" x="293.5" y="266" rx="2" transform="rotate(56, 589, 268)" opacity="0.34"></rect><rect width="593" height="4" x="-90.5" y="336" rx="2" transform="rotate(56, 206, 338)" opacity="0.49"></rect><rect width="763" height="4" x="-107.5" y="265" rx="2" transform="rotate(56, 274, 267)" opacity="0.41"></rect><rect width="130" height="4" x="136" y="42" rx="2" transform="rotate(56, 201, 44)" opacity="0.47"></rect><rect width="132" height="4" x="247" y="162" rx="2" transform="rotate(56, 313, 164)" opacity="0.92"></rect><rect width="254" height="4" x="652" y="178" rx="2" transform="rotate(56, 779, 180)" opacity="0.64"></rect><rect width="377" height="4" x="270.5" y="416" rx="2" transform="rotate(56, 459, 418)" opacity="0.10"></rect><rect width="39" height="4" x="407.5" y="637" rx="2" transform="rotate(56, 427, 639)" opacity="0.78"></rect><rect width="129" height="4" x="288.5" y="11" rx="2" transform="rotate(56, 353, 13)" opacity="0.65"></rect><rect width="129" height="4" x="589.5" y="708" rx="2" transform="rotate(56, 654, 710)" opacity="0.70"></rect><rect width="381" height="4" x="224.5" y="480" rx="2" transform="rotate(56, 415, 482)" opacity="0.30"></rect><rect width="85" height="4" x="727.5" y="279" rx="2" transform="rotate(56, 770, 281)" opacity="0.48"></rect><rect width="608" height="4" x="269" y="638" rx="2" transform="rotate(56, 573, 640)" opacity="0.13"></rect><rect width="562" height="4" x="-239" y="455" rx="2" transform="rotate(56, 42, 457)" opacity="0.29"></rect><rect width="184" height="4" x="187" y="642" rx="2" transform="rotate(56, 279, 644)" opacity="0.51"></rect><rect width="397" height="4" x="456.5" y="223" rx="2" transform="rotate(56, 655, 225)" opacity="0.74"></rect><rect width="127" height="4" x="597.5" y="312" rx="2" transform="rotate(56, 661, 314)" opacity="0.99"></rect><rect width="88" height="4" x="1" y="130" rx="2" transform="rotate(56, 45, 132)" opacity="0.40"></rect><rect width="116" height="4" x="479" y="476" rx="2" transform="rotate(56, 537, 478)" opacity="0.82"></rect><rect width="161" height="4" x="229.5" y="521" rx="2" transform="rotate(56, 310, 523)" opacity="0.88"></rect><rect width="67" height="4" x="534.5" y="174" rx="2" transform="rotate(56, 568, 176)" opacity="0.85"></rect><rect width="507" height="4" x="131.5" y="263" rx="2" transform="rotate(56, 385, 265)" opacity="0.68"></rect><rect width="790" height="4" x="-316" y="575" rx="2" transform="rotate(56, 79, 577)" opacity="0.73"></rect><rect width="436" height="4" x="51" y="98" rx="2" transform="rotate(56, 269, 100)" opacity="0.46"></rect><rect width="119" height="4" x="702.5" y="721" rx="2" transform="rotate(56, 762, 723)" opacity="0.74"></rect><rect width="163" height="4" x="654.5" y="192" rx="2" transform="rotate(56, 736, 194)" opacity="0.97"></rect><rect width="59" height="4" x="252.5" y="403" rx="2" transform="rotate(56, 282, 405)" opacity="0.19"></rect></g></svg>