<svg id="visual" viewBox="0 0 960 150" width="960" height="150" xmlns="http://www.w3.org/2000/svg" xmlns:xlink="http://www.w3.org/1999/xlink" version="1.1"><path d="M0 94L46 126L91 108L137 95L183 122L229 97L274 118L320 125L366 114L411 101L457 109L503 96L549 120L594 107L640 116L686 110L731 94L777 126L823 125L869 114L914 102L960 111L960 151L914 151L869 151L823 151L777 151L731 151L686 151L640 151L594 151L549 151L503 151L457 151L411 151L366 151L320 151L274 151L229 151L183 151L137 151L91 151L46 151L0 151Z" fill="#101316"></path><path d="M0 131L46 116L91 119L137 108L183 127L229 118L274 113L320 125L366 110L411 130L457 115L503 118L549 127L594 128L640 111L686 111L731 128L777 131L823 113L869 131L914 124L960 127L960 151L914 151L869 151L823 151L777 151L731 151L686 151L640 151L594 151L549 151L503 151L457 151L411 151L366 151L320 151L274 151L229 151L183 151L137 151L91 151L46 151L0 151Z" fill="#121619"></path><path d="M0 130L46 129L91 132L137 126L183 125L229 136L274 130L320 135L366 117L411 131L457 118L503 122L549 123L594 127L640 134L686 122L731 128L777 128L823 129L869 129L914 140L960 131L960 151L914 151L869 151L823 151L777 151L731 151L686 151L640 151L594 151L549 151L503 151L457 151L411 151L366 151L320 151L274 151L229 151L183 151L137 151L91 151L46 151L0 151Z" fill="#14181b"></path><path d="M0 131L46 129L91 146L137 136L183 138L229 136L274 142L320 137L366 145L411 140L457 146L503 143L549 142L594 140L640 143L686 145L731 137L777 145L823 137L869 131L914 145L960 128L960 151L914 151L869 151L823 151L777 151L731 151L686 151L640 151L594 151L549 151L503 151L457 151L411 151L366 151L320 151L274 151L229 151L183 151L137 151L91 151L46 151L0 151Z" fill="#161a1d"></path></svg>